<svg id="Camada_1" data-name="Camada 1" xmlns="http://www.w3.org/2000/svg" xmlns:xlink="http://www.w3.org/1999/xlink" viewBox="0 0 1000 1000"><defs><style>.cls-1{fill:url(#Gradiente_sem_nome_18);}.cls-2{fill:url(#Gradiente_sem_nome_18-2);}.cls-3{fill:url(#Gradiente_sem_nome_18-3);}.cls-4{fill:url(#Gradiente_sem_nome_18-4);}.cls-5{fill:url(#Gradiente_sem_nome_18-5);}.cls-6{fill:url(#Gradiente_sem_nome_18-6);}.cls-7{fill:url(#Gradiente_sem_nome_18-7);}</style><linearGradient id="Gradiente_sem_nome_18" x1="330.22" y1="761.03" x2="537.31" y2="761.03" gradientUnits="userSpaceOnUse"><stop offset="0" stop-color="#9c4e46"/><stop offset="0.24" stop-color="#b4655a"/><stop offset="0.61" stop-color="#d98b79"/></linearGradient><linearGradient id="Gradiente_sem_nome_18-2" x1="261.34" y1="608.65" x2="348.57" y2="608.65" xlink:href="#Gradiente_sem_nome_18"/><linearGradient id="Gradiente_sem_nome_18-3" x1="234.65" y1="628.21" x2="338.93" y2="628.21" xlink:href="#Gradiente_sem_nome_18"/><linearGradient id="Gradiente_sem_nome_18-4" x1="414.76" y1="500" x2="848.37" y2="500" xlink:href="#Gradiente_sem_nome_18"/><linearGradient id="Gradiente_sem_nome_18-5" x1="463.43" y1="586.61" x2="780.5" y2="586.61" xlink:href="#Gradiente_sem_nome_18"/><linearGradient id="Gradiente_sem_nome_18-6" x1="151.63" y1="452.46" x2="463.94" y2="452.46" xlink:href="#Gradiente_sem_nome_18"/><linearGradient id="Gradiente_sem_nome_18-7" x1="264.09" y1="523.89" x2="449.41" y2="523.89" xlink:href="#Gradiente_sem_nome_18"/></defs><title>Borboletinha</title><path class="cls-1" d="M351.59,662.05c26.66-2.12,65.73,13.26,129.75,99.41,49.39,66.45,62.08,88.81,53.5,96.48-11.86,10.6-28.19-15.65-88.34-92.28-47.87-61-81.18-52-101-60.67C320.64,694.14,328.6,663.89,351.59,662.05Z"/><path class="cls-2" d="M261.92,567.87c1.4-3,4.45-6.46,17.61-3.5,19,4.29,37.89,19.67,54.15,51.1,14.55,28.17,16.44,37.19,14,38.5s-8.4-11.12-16.46-27.11c-9.73-19.32-23.86-37.55-50.65-43.53C263.2,579.45,259.75,572.55,261.92,567.87Z"/><path class="cls-3" d="M234.68,606.47c.35-3.17,2.07-7.21,14.9-8.52,18.57-1.89,40.32,6.32,64.59,29.88,21.75,21.11,26.19,28.7,24.38,30.63s-11-7.51-23.14-19.57c-14.7-14.55-33-26.79-59.14-24.08C239.37,616.58,234.15,611.38,234.68,606.47Z"/><path class="cls-4" d="M471.3,537.61c-6.66,68.64-2.88,175.62,64.49,233.91S677,807,733.56,879.17s49.18,68.81,77.34,71.75,60.85-47.44,13.56-75.16-67.64-65.56-66.71-99.09-13-93.46-114.92-83.44S573,658,592.69,638.29s84.4-79.63,119.37-186.18c33.75-102.82-22.45-190.7-94.91-210.19-84.37-22.7-142.84-18-127.44-67.69,25-80.68,11.52-129.7-37.09-125-54.33,5.3-39.13,78.66-22,131.19C446.64,229.75,484.16,404.95,471.3,537.61Z"/><path class="cls-5" d="M771.78,851.23c-17-33.14-45.64-100.84-84.69-131.48-16.65-13.06-42.86-16.18-69.12-16-37.15.28-52.94-2.74-57.15-12.48-10.35-23.91,61.29-75.17,105.09-171.12,3-6.48,5.35-13.36,7.79-20.35,30-85.32-25.13-176.63-80.7-205.12-74.13-38-138-19.17-128.65,51.45,2.16,16.31,4.73,42.72,6.05,56.63,4.5-39.55,52.57-79.65,131.21-22.2,47.88,35,79,136.78-28.16,272.58l-.09.1c-10.43,13.5-32,36.64-24,50.75,6.3,10.54,26.84,11,39.11,10.52,61.28-2.32,73.58,5,112.85,62.09,5.56,7.92,20.57,31.95,31.63,51.39,3.28,5.69,10,17.36,12.1,23.53,6,17.25-3.86,26.83-20.73,16.7C769.17,920.17,795.07,896.63,771.78,851.23Z"/><path class="cls-6" d="M463.94,707.36c-21.69-53.95-26.35-112.83-26.47-152.56-.23-79.38-12.23-186.67-66.12-223-23.08-15.55-48.36-6.1-70.6-4.63-23.75,1.57-38.48-4.07-44.18-28.88-17.95-78-52-115.75-88.9-95.22-41.26,22.94,5.62,81.07,44.21,120.58,36.2,37.08,149.17,175.48,201.45,294.22C425.11,644.69,441.93,677.06,463.94,707.36Z"/><path class="cls-7" d="M403.86,519.18c-10.94-77.62-38.79-139-83.4-153.37-31.42-10.09-50.76,2.3-56.38,18.58,12.34,15.44,25.71,32.84,39.38,51.51l.14,0c4.3-1,10.37-1.53,19,.09,33.87,6.37,52.94,41.23,69,96.57,10.91,37.56,21.46,78.63,23.88,90.13a512.67,512.67,0,0,0,33.84,62.94l.1-.24C422.36,638.62,410.71,567.81,403.86,519.18Z"/></svg>